<svg width="21" height="25" viewBox="0 0 21 25" fill="none" xmlns="http://www.w3.org/2000/svg">
<path d="M15.3406 4.93716L17.6493 0.853394L20.063 4.93716L17.6493 3.57588L15.3406 4.93716Z" fill="black"/>
<path d="M15.3406 4.93721L17.6493 3.57593L17.5444 0.95813L15.3406 4.93721Z" fill="black"/>
<path d="M17.6494 0.853271L17.5444 0.957958L17.6494 3.57576L20.0631 4.93704L17.6494 0.853271Z" fill="black"/>
<path d="M0.22876 24.8326V0.958252L20.0629 18.864V24.9373L4.21657 10.5918V24.9373H0.22876V24.8326Z" fill="black"/>
<path d="M17.0197 11.7435C16.9147 11.7435 16.7048 11.6388 16.7048 11.4293V7.03144C16.7048 6.92673 16.8098 6.71729 17.0197 6.71729C17.1246 6.71729 17.3345 6.82202 17.3345 7.03144V11.4293C17.3345 11.6388 17.2296 11.7435 17.0197 11.7435Z" fill="black"/>
<path d="M18.2789 11.7435C18.174 11.7435 17.9641 11.6388 17.9641 11.4293V7.03144C17.9641 6.92673 18.069 6.71729 18.2789 6.71729C18.3839 6.71729 18.5938 6.82202 18.5938 7.03144V11.4293C18.5938 11.6388 18.4888 11.7435 18.2789 11.7435Z" fill="black"/>
</svg>
